<svg width="20" height="24" viewBox="0 0 20 24" fill="none" xmlns="http://www.w3.org/2000/svg">
<path d="M0 5.4743C0 4.16367 1.08537 3.1012 2.42424 3.1012H4.84848V20.8995H2.42424C1.08537 20.8995 0 19.837 0 18.5264V5.4743Z" fill="#D1EAFF"/>
<path fill-rule="evenodd" clip-rule="evenodd" d="M7.2728 1.18746V22.8125C7.2728 23.6224 8.08334 24.1943 8.86822 23.9382L19.1713 20.5763C19.6662 20.4148 20.0001 19.9614 20.0001 19.4506V4.54936C20.0001 4.03863 19.6662 3.5852 19.1713 3.4237L8.86822 0.0617996C8.08334 -0.19431 7.2728 0.377571 7.2728 1.18746ZM11.5152 13.7798C12.5194 13.7798 13.3334 12.983 13.3334 12C13.3334 11.017 12.5194 10.2202 11.5152 10.2202C10.5111 10.2202 9.69704 11.017 9.69704 12C9.69704 12.983 10.5111 13.7798 11.5152 13.7798Z" fill="#D1EAFF"/>
</svg>
