<svg width="26" height="26" viewBox="0 0 26 26" fill="none" xmlns="http://www.w3.org/2000/svg">
<g clip-path="url(#clip0_5_1001)">
<path d="M13.7366 13.1169V25.9997H15.2499V12.5625L13.7366 13.1169Z" fill="#979797"/>
<path d="M4.59598 16.4441V23.7151C4.59598 24.9752 5.62105 26.0003 6.88113 26.0003H12.203V13.6719L4.59598 16.4441Z" fill="#979797"/>
<path d="M16.7835 12.1875V26H22.1155C23.3756 26 24.3905 24.9749 24.3905 23.7148V12.1875H16.7835Z" fill="#979797"/>
<path d="M23.1545 4.01574C22.7256 2.83884 21.4293 2.21626 20.2259 2.64998L13.7183 5.01847L15.9334 10.6968L24.4578 7.5945L23.1545 4.01574Z" fill="#979797"/>
<path d="M9.42385 6.58105L3.04705 8.90191C1.86181 9.3338 1.24792 10.6413 1.68134 11.8305L2.98382 15.4093L11.6392 12.2593L9.42385 6.58105Z" fill="#979797"/>
<path d="M12.2765 5.54297L10.8448 6.06404L13.0807 11.7347L14.5125 11.2137L12.2765 5.54297Z" fill="#979797"/>
<path d="M16.6049 0.599471C15.7241 -0.0447395 14.5956 -0.179361 13.5899 0.242378C12.5835 0.662643 11.8857 1.55751 11.7236 2.63616L11.4673 4.21611L13.0971 3.62289L13.2306 2.86228C13.3125 2.31481 13.6658 1.86103 14.1769 1.64831C14.6702 1.44087 15.2449 1.49312 15.7062 1.8298C15.9785 2.02907 16.1606 2.16968 16.2601 2.47167L17.6814 1.95432C17.479 1.37216 17.1221 0.977893 16.6049 0.599471Z" fill="#979797"/>
<path d="M9.61305 3.27393C8.79562 2.55086 7.68428 2.31361 6.64433 2.63942C5.6029 2.96523 4.8256 3.79165 4.56524 4.85094C4.41229 5.47327 4.47642 6.10494 4.6956 6.68105L6.11656 6.16379C5.99854 5.86829 5.9633 5.54329 6.04404 5.21545C6.17643 4.67763 6.57069 4.25883 7.09882 4.09369C7.60937 3.93246 8.17772 4.03829 8.60438 4.41504L9.27992 5.01248L10.9089 4.41951L9.61305 3.27393Z" fill="#979797"/>
</g>
<defs>
<clipPath id="clip0_5_1001">
<rect width="26" height="26" fill="white"/>
</clipPath>
</defs>
</svg>
