<svg width="27" height="28" viewBox="0 0 27 28" fill="none" xmlns="http://www.w3.org/2000/svg">
<path fill-rule="evenodd" clip-rule="evenodd" d="M14.1493 1.17765C13.7753 0.858305 13.2246 0.858305 12.8506 1.17765L0.851427 11.4232C0.467848 11.7507 0.388219 12.3126 0.665696 12.7338L1.66005 14.2432C1.99092 14.7454 2.68708 14.8441 3.14447 14.4535L3.86125 13.8415V26.0618C3.86125 26.6141 4.30896 27.0618 4.86125 27.0618H9.87178C10.4241 27.0618 10.8718 26.6141 10.8718 26.0618V19.0829C10.8718 18.5306 11.3195 18.0829 11.8718 18.0829H15.1297C15.682 18.0829 16.1297 18.5306 16.1297 19.0829V26.0618C16.1297 26.6141 16.5774 27.0618 17.1297 27.0618H22.1402C22.6925 27.0618 23.1402 26.6141 23.1402 26.0618V13.8428L23.8555 14.4535C24.3129 14.8441 25.009 14.7454 25.3399 14.2432L26.3343 12.7338C26.6117 12.3126 26.5321 11.7507 26.1485 11.4232L14.1493 1.17765Z" fill="#979797"/>
</svg>
