<svg width="28" height="28" viewBox="0 0 28 28" fill="none" xmlns="http://www.w3.org/2000/svg">
<path d="M23.1596 14.0031C23.0524 14.5417 22.5748 14.934 22.0021 14.9584C21.8218 14.9657 21.6683 15.0973 21.6342 15.2751C21.5976 15.453 21.6878 15.6333 21.851 15.7089C22.3701 15.9526 22.6601 16.4984 22.5504 17.0369L22.4481 17.5487C22.314 18.2237 21.5684 18.6452 20.9153 18.4844C20.7326 18.4405 20.5449 18.4064 20.3597 18.3699C20.0868 18.3163 19.8139 18.2602 19.541 18.2066C19.1803 18.1335 18.8196 18.0629 18.459 17.9897C18.0301 17.9045 17.5988 17.8167 17.17 17.7314C16.6899 17.634 16.2099 17.5389 15.7298 17.4415C15.2181 17.3391 14.7039 17.2368 14.1922 17.132C13.6658 17.0272 13.1395 16.92 12.6156 16.8152C12.0941 16.7104 11.5751 16.6056 11.0536 16.5009C10.5565 16.401 10.0594 16.3011 9.56228 16.2011C9.1066 16.111 8.65336 16.0184 8.19768 15.9282C7.80292 15.8502 7.40816 15.7698 7.01583 15.6919C6.70149 15.6285 6.38714 15.5652 6.07036 15.5018C5.85348 15.4579 5.63658 15.4141 5.41973 15.3702C5.3198 15.3507 5.21991 15.3288 5.12001 15.3093C5.11513 15.3093 5.11026 15.3068 5.10536 15.3068C5.15897 15.5603 5.1346 15.8307 5.01764 16.0842C4.77149 16.6154 4.19885 16.8932 3.64816 16.786C3.48489 16.7543 3.307 16.8152 3.23634 16.9663L3.01703 17.4415C2.94638 17.5925 3.01703 17.768 3.1462 17.8728C3.17057 17.8923 20.735 25.9897 20.7642 25.997C20.9275 26.0287 21.1054 25.9678 21.176 25.8167L21.3953 25.3415C21.466 25.1905 21.3953 25.015 21.2662 24.9102C20.8276 24.5618 20.6667 23.9452 20.9129 23.414C21.159 22.8828 21.7316 22.605 22.2823 22.7123C22.4456 22.7439 22.6235 22.683 22.6941 22.5319L22.9134 22.0568C22.9841 21.9057 22.9134 21.7303 22.7843 21.6254C22.3457 21.277 22.1848 20.6605 22.431 20.1293C22.6771 19.5981 23.2497 19.3203 23.8004 19.4275C23.9637 19.4592 24.1416 19.3982 24.2122 19.2472L24.4316 18.772C24.5022 18.6209 24.4316 18.4455 24.3024 18.3407C23.8638 17.9922 23.7029 17.3757 23.9491 16.8445C24.1952 16.3133 24.7678 16.0355 25.3185 16.1427C25.4818 16.1744 25.6597 16.1134 25.7303 15.9624L25.9716 15.436C26.0422 15.2849 25.9764 15.107 25.8254 15.0364L23.201 13.8253L23.1596 14.0031Z" fill="#00A3FF"/>
<path d="M2.22935 13.8342C2.2586 13.8489 21.2193 17.6527 21.251 17.6527C21.4167 17.6454 21.5775 17.543 21.6092 17.3822L21.7115 16.8705C21.7432 16.7072 21.636 16.5512 21.4849 16.4806C20.9781 16.2418 20.6783 15.6813 20.7929 15.1062C20.9074 14.5311 21.4021 14.1291 21.9625 14.1047C22.1282 14.0974 22.2891 13.995 22.3207 13.8342L22.3963 13.4589L22.4231 13.32C22.4548 13.1568 22.3475 13.0008 22.1965 12.9302C21.6896 12.6914 21.3899 12.1309 21.5044 11.5558C21.619 10.9807 22.1136 10.5787 22.6741 10.5543C22.8398 10.547 23.0006 10.4446 23.0323 10.2838L23.1346 9.77208C23.1663 9.60881 23.0591 9.45286 22.908 9.38219C22.4011 9.14339 22.1014 8.58292 22.216 8.00784C22.3305 7.43276 22.8252 7.03069 23.3856 7.00632C23.5513 6.99901 23.7121 6.89666 23.7438 6.73583L23.8583 6.16806C23.8901 6.0048 23.7852 5.84641 23.622 5.81473C23.622 5.81473 4.5687 1.99384 4.54921 1.99384C4.40787 1.99384 4.2836 2.09374 4.25436 2.23508L4.13983 2.80285C4.10815 2.96612 4.21537 3.12207 4.36645 3.19274C4.8733 3.43154 5.17303 3.99201 5.0585 4.56709C4.94397 5.14217 4.4493 5.54424 3.88884 5.56861C3.72311 5.57592 3.56231 5.67827 3.53063 5.83909L3.42828 6.35082C3.3966 6.51409 3.50382 6.67004 3.6549 6.74071C4.16176 6.97951 4.46151 7.53998 4.34695 8.11506C4.23242 8.69014 3.73775 9.09221 3.17729 9.11658C3.01159 9.12389 2.85076 9.22624 2.81908 9.38707L2.71674 9.89879C2.68506 10.0621 2.7923 10.218 2.94336 10.2887C3.45024 10.5275 3.74996 11.0879 3.63541 11.663C3.52088 12.2381 3.02621 12.6402 2.46575 12.6646C2.30005 12.6719 2.13922 12.7742 2.10754 12.9351L2.00519 13.4468C1.97105 13.6101 2.07825 13.7636 2.22935 13.8342ZM18.4706 7.58874C18.5364 7.25977 18.858 7.04533 19.187 7.11113C19.516 7.17692 19.7304 7.49858 19.6646 7.82754L18.8605 11.8288L18.3658 14.2948C18.3073 14.5848 18.0539 14.7846 17.7688 14.7846C17.7298 14.7846 17.6884 14.7797 17.6494 14.7724C17.3204 14.7066 17.106 14.385 17.1718 14.056L17.7249 11.3049L18.4706 7.58874ZM7.48552 5.38344C7.55132 5.05447 7.87297 4.84003 8.20194 4.90583C8.53091 4.97162 8.74534 5.29328 8.67955 5.62224L8.40176 7.00391L8.08743 8.57076L7.83401 9.83302L7.3832 12.0895C7.32474 12.3795 7.07129 12.5793 6.78619 12.5793C6.7472 12.5793 6.70577 12.5744 6.66681 12.5671C6.64975 12.5647 6.63269 12.5598 6.61807 12.5549C6.31591 12.4672 6.12825 12.1626 6.19163 11.8507L6.28177 11.395L6.51814 10.2156L7.48552 5.38344Z" fill="#00A3FF"/>
</svg>
