<svg width="29" height="28" viewBox="0 0 29 28" fill="none" xmlns="http://www.w3.org/2000/svg">
<path fill-rule="evenodd" clip-rule="evenodd" d="M6 9C4.34315 9 3 10.3431 3 12V23C3 24.6569 4.34315 26 6 26H22C23.6569 26 25 24.6569 25 23V21H19.5C17.567 21 16 19.433 16 17.5C16 15.567 17.567 14 19.5 14H25V12C25 10.3431 23.6569 9 22 9H6Z" fill="#979797"/>
<path d="M18.692 3.95453L12.8309 7.25137C12.4721 7.45317 12.6154 8 13.027 8H21.7526C22.0721 8 22.2626 7.64394 22.0854 7.37812L20.0143 4.2714C19.7242 3.83625 19.1478 3.69813 18.692 3.95453Z" fill="#979797"/>
<path d="M7.96569 8H8.73805C8.90979 8 9.07863 7.95577 9.22831 7.87158L16.4943 3.78446C16.7384 3.64713 16.7694 3.30787 16.5543 3.12855L14.7016 1.58463C14.3042 1.25352 13.72 1.28002 13.3543 1.64574L7.68284 7.31716C7.43086 7.56914 7.60932 8 7.96569 8Z" fill="#979797"/>
<path fill-rule="evenodd" clip-rule="evenodd" d="M19.5 15C18.1193 15 17 16.1193 17 17.5C17 18.8807 18.1193 20 19.5 20H26C26.5523 20 27 19.5523 27 19V16C27 15.4477 26.5523 15 26 15H19.5ZM19.5 18C19.7761 18 20 17.7761 20 17.5C20 17.2239 19.7761 17 19.5 17C19.2239 17 19 17.2239 19 17.5C19 17.7761 19.2239 18 19.5 18Z" fill="#979797"/>
</svg>
